<?xml version="1.0" encoding="iso-8859-1"?>
<!-- Generator: Adobe Illustrator 19.0.0, SVG Export Plug-In . SVG Version: 6.00 Build 0)  -->
<svg version="1.1" id="Capa_1" xmlns="http://www.w3.org/2000/svg" xmlns:xlink="http://www.w3.org/1999/xlink" x="0px" y="0px"
	 viewBox="0 0 512.001 512.001" style="enable-background:new 0 0 512.001 512.001;" xml:space="preserve">
<g>
	<g>
		<path d="M256,40.909c-21.07,0-38.212,17.142-38.212,38.212c0,21.07,17.142,38.212,38.212,38.212s38.212-17.142,38.212-38.212
			C294.212,58.051,277.07,40.909,256,40.909z M256,102.274c-12.767,0-23.154-10.387-23.154-23.154S243.232,55.966,256,55.966
			c12.768,0,23.154,10.387,23.154,23.154S268.768,102.274,256,102.274z"/>
	</g>
</g>
<g>
	<g>
		<path d="M256,0c-4.159,0-7.529,3.37-7.529,7.529v10.227c0,4.158,3.371,7.529,7.529,7.529c4.159,0,7.529-3.37,7.529-7.529V7.529
			C263.529,3.37,260.159,0,256,0z"/>
	</g>
</g>
<g>
	<g>
		<path d="M217.934,30.406l-7.232-7.232c-2.941-2.939-7.708-2.939-10.648,0c-2.94,2.941-2.94,7.708,0,10.648l7.231,7.232
			c1.471,1.47,3.398,2.205,5.324,2.205c1.926,0,3.854-0.735,5.325-2.205C220.874,38.112,220.874,33.346,217.934,30.406z"/>
	</g>
</g>
<g>
	<g>
		<path d="M194.637,71.591h-10.227c-4.159,0-7.529,3.37-7.529,7.529s3.37,7.529,7.529,7.529h10.227c4.159,0,7.529-3.37,7.529-7.529
			S198.796,71.591,194.637,71.591z"/>
	</g>
</g>
<g>
	<g>
		<path d="M217.934,117.187c-2.941-2.938-7.709-2.938-10.649,0l-7.232,7.232c-2.94,2.941-2.94,7.708,0,10.648
			c1.471,1.47,3.398,2.205,5.324,2.205c1.926,0,3.854-0.735,5.324-2.205l7.232-7.232
			C220.874,124.894,220.874,120.128,217.934,117.187z"/>
	</g>
</g>
<g>
	<g>
		<path d="M256,132.956c-4.159,0-7.529,3.371-7.529,7.529v10.227c0,4.159,3.37,7.529,7.529,7.529c4.159,0,7.529-3.37,7.529-7.529
			v-10.227C263.529,136.326,260.159,132.956,256,132.956z"/>
	</g>
</g>
<g>
	<g>
		<path d="M311.949,124.419l-7.233-7.232c-2.941-2.939-7.708-2.939-10.648,0c-2.94,2.941-2.94,7.708,0,10.648l7.232,7.232
			c1.471,1.47,3.398,2.205,5.324,2.205s3.854-0.735,5.324-2.205C314.889,132.126,314.889,127.36,311.949,124.419z"/>
	</g>
</g>
<g>
	<g>
		<path d="M327.593,71.591h-10.227c-4.159,0-7.529,3.371-7.529,7.529c0,4.159,3.37,7.529,7.529,7.529h10.227
			c4.159,0,7.529-3.37,7.529-7.529S331.752,71.591,327.593,71.591z"/>
	</g>
</g>
<g>
	<g>
		<path d="M311.949,23.174c-2.941-2.939-7.708-2.939-10.648,0l-7.232,7.232c-2.94,2.941-2.94,7.708,0,10.648
			c1.47,1.469,3.397,2.204,5.323,2.204s3.854-0.735,5.324-2.205l7.232-7.232C314.889,30.881,314.889,26.114,311.949,23.174z"/>
	</g>
</g>
<g>
	<g>
		<path d="M358.277,231.028H153.727h-0.001c-0.001,0-0.002,0-0.002,0c-60.546,0-109.802,49.256-109.802,109.801v163.638
			c0,4.159,3.37,7.529,7.529,7.529h61.266c0.032,0,0.064,0.005,0.097,0.005h81.82c0.033,0,0.064-0.004,0.097-0.005h61.265
			c0.001,0,0.002,0,0.003,0c0.001,0,0.002,0,0.003,0H460.55c4.159,0,7.529-3.37,7.529-7.529V340.83
			C468.079,280.284,418.821,231.028,358.277,231.028z M187.106,496.937h-66.763v-87.213h66.763V496.937z M248.468,496.938h-46.305
			v-0.001v-94.742c0-4.159-3.37-7.529-7.529-7.529h-81.82c-4.159,0-7.529,3.37-7.529,7.529v94.742H58.98V348.358h133.256
			c4.159,0,7.529-3.37,7.529-7.529c0-4.159-3.37-7.529-7.529-7.529H59.279c3.85-48.735,44.737-87.214,94.445-87.214
			s90.595,38.48,94.445,87.215h-22.852c-4.159,0-7.529,3.37-7.529,7.529s3.37,7.529,7.529,7.529h23.151V496.938z M453.021,496.938
			H263.526v-0.001V348.358h133.261c4.159,0,7.529-3.37,7.529-7.529c0-4.159-3.37-7.529-7.529-7.529H263.263
			c-2.531-37.174-23.642-69.323-54.1-87.214h149.113c49.708,0,90.595,38.48,94.445,87.215h-22.853c-4.159,0-7.529,3.37-7.529,7.529
			s3.37,7.529,7.529,7.529h23.152V496.938z"/>
	</g>
</g>
<g>
	<g>
		<path d="M324.183,363.982c-4.159,0-7.529,3.37-7.529,7.529v102.276c0,4.159,3.37,7.529,7.529,7.529s7.529-3.37,7.529-7.529
			V371.511C331.711,367.352,328.342,363.982,324.183,363.982z"/>
	</g>
</g>
<g>
	<g>
		<path d="M392.365,363.982c-4.159,0-7.529,3.37-7.529,7.529v102.276c0,4.159,3.37,7.529,7.529,7.529s7.529-3.37,7.529-7.529
			V371.511C399.894,367.352,396.524,363.982,392.365,363.982z"/>
	</g>
</g>
<g>
</g>
<g>
</g>
<g>
</g>
<g>
</g>
<g>
</g>
<g>
</g>
<g>
</g>
<g>
</g>
<g>
</g>
<g>
</g>
<g>
</g>
<g>
</g>
<g>
</g>
<g>
</g>
<g>
</g>
</svg>
